<?xml version="1.0" encoding="UTF-8"?>
<!DOCTYPE svg PUBLIC "-//W3C//DTD SVG 1.1//EN" "http://www.w3.org/Graphics/SVG/1.1/DTD/svg11.dtd">
<svg xmlns="http://www.w3.org/2000/svg" version="1.1" width="192px" height="192px" style="shape-rendering:geometricPrecision; text-rendering:geometricPrecision; image-rendering:optimizeQuality; fill-rule:evenodd; clip-rule:evenodd" xmlns:xlink="http://www.w3.org/1999/xlink">
<g><path style="opacity:0.611" fill="#2d4154" d="M 93.5,17.5 C 94.8734,17.3433 96.2068,17.51 97.5,18C 129.644,36.1827 148.477,63.6827 154,100.5C 154.833,122.174 154.666,143.841 153.5,165.5C 144.011,155.178 134.011,145.345 123.5,136C 104.833,135.333 86.1667,135.333 67.5,136C 56.9887,145.345 46.9887,155.178 37.5,165.5C 36.3336,143.841 36.1669,122.174 37,100.5C 40.079,82.0217 46.7457,65.0217 57,49.5C 63.8019,41.697 70.9686,34.197 78.5,27C 83.8695,24.321 88.8695,21.1543 93.5,17.5 Z"/></g>
<g><path style="opacity:1" fill="#4a8fdf" d="M 94.5,76.5 C 78.0379,79.8536 72.8712,89.5202 79,105.5C 84.9071,113.802 92.7404,116.302 102.5,113C 112.044,108.078 115.877,100.244 114,89.5C 110.598,81.936 104.765,77.6027 96.5,76.5C 96.3334,57.8304 96.5001,39.1637 97,20.5C 126.358,38.1931 144.358,63.8597 151,97.5C 151.499,101.152 151.665,104.818 151.5,108.5C 151.83,125.342 151.497,142.008 150.5,158.5C 142.035,150.536 133.702,142.369 125.5,134C 105.5,133.333 85.5,133.333 65.5,134C 57.2983,142.369 48.965,150.536 40.5,158.5C 39.5036,142.342 39.1702,126.009 39.5,109.5C 41.8104,71.3754 59.1438,42.2088 91.5,22C 92.4162,21.6258 93.2496,21.1258 94,20.5C 94.4999,39.1637 94.6666,57.8304 94.5,76.5 Z"/></g>
<g><path style="opacity:1" fill="#f09b18" d="M 94.5,76.5 C 95.1667,76.5 95.8333,76.5 96.5,76.5C 104.765,77.6027 110.598,81.936 114,89.5C 115.877,100.244 112.044,108.078 102.5,113C 92.7404,116.302 84.9071,113.802 79,105.5C 72.8712,89.5202 78.0379,79.8536 94.5,76.5 Z"/></g>
<g><path style="opacity:1" fill="#3e70a9" d="M 39.5,109.5 C 39.1702,126.009 39.5036,142.342 40.5,158.5C 40.44,159.043 40.1067,159.376 39.5,159.5C 38.1731,142.671 38.1731,126.005 39.5,109.5 Z"/></g>
<g><path style="opacity:1" fill="#3e71a9" d="M 151.5,108.5 C 152.827,125.338 152.827,142.338 151.5,159.5C 150.893,159.376 150.56,159.043 150.5,158.5C 151.497,142.008 151.83,125.342 151.5,108.5 Z"/></g>
<g><path style="opacity:0.937" fill="#2c3e50" d="M 71.5,143.5 C 72.8271,147.951 73.4937,152.784 73.5,158C 73.1667,162.833 72.8333,167.667 72.5,172.5C 71.5016,162.856 71.1682,153.19 71.5,143.5 Z"/></g>
<g><path style="opacity:1" fill="#2c3e50" d="M 117.5,143.5 C 118.827,147.951 119.494,152.784 119.5,158C 119.167,162.833 118.833,167.667 118.5,172.5C 117.502,162.856 117.168,153.19 117.5,143.5 Z"/></g>
</svg>
